STARTFONT 2.1
FONT -Linotype-Palatino-Medium-I-Normal--12-120-72-72-P-63-ISO8859-1
SIZE 12 72 72
FONTBOUNDINGBOX 13 16 -1 -3

STARTPROPERTIES 22
FONTNAME_REGISTRY "-"
FOUNDRY "Linotype"
FAMILY_NAME "Palatino"
WEIGHT_NAME "Medium"
SLANT "I"
SETWIDTH_NAME "Normal"
ADD_STYLE_NAME ""
SPACING "P"
CHARSET_REGISTRY "ISO8859"
CHARSET_ENCODING "1"
PIXEL_SIZE 12
POINT_SIZE 120
RESOLUTION_X 72
RESOLUTION_Y 72
AVERAGE_WIDTH 63
FULL_NAME "Palatino-Italic"
WEIGHT 10
X_HEIGHT 6
QUAD_WIDTH 7
DEFAULT_CHAR 32
FONT_DESCENT 3
FONT_ASCENT 13
ENDPROPERTIES

CHARS 190

STARTCHAR space
ENCODING 32
SWIDTH 250 0
DWIDTH 3 0
BBX 1 1 0 0
BITMAP
00
ENDCHAR

STARTCHAR exclam
ENCODING 33
SWIDTH 333 0
DWIDTH 4 0
BBX 3 9 1 0
BITMAP
20
20
20
40
40
40
00
80
80
ENDCHAR

STARTCHAR quotedbl
ENCODING 34
SWIDTH 500 0
DWIDTH 6 0
BBX 4 3 1 6
BITMAP
50
50
A0
ENDCHAR

STARTCHAR numbersign
ENCODING 35
SWIDTH 500 0
DWIDTH 7 0
BBX 6 9 0 0
BITMAP
28
28
28
FC
48
FC
50
50
50
ENDCHAR

STARTCHAR dollar
ENCODING 36
SWIDTH 500 0
DWIDTH 6 0
BBX 6 11 0 -1
BITMAP
10
3C
54
50
50
30
28
28
A8
F0
20
ENDCHAR

STARTCHAR percent
ENCODING 37
SWIDTH 889 0
DWIDTH 11 0
BBX 8 9 1 0
BITMAP
62
94
94
68
08
16
29
29
46
ENDCHAR

STARTCHAR ampersand
ENCODING 38
SWIDTH 778 0
DWIDTH 9 0
BBX 9 9 0 0
BITMAP
1C00
2400
2000
3880
4700
8A00
8200
C400
7800
ENDCHAR

STARTCHAR quoteright
ENCODING 39
SWIDTH 278 0
DWIDTH 3 0
BBX 2 3 1 6
BITMAP
40
40
80
ENDCHAR

STARTCHAR parenleft
ENCODING 40
SWIDTH 333 0
DWIDTH 4 0
BBX 4 12 0 -2
BITMAP
10
20
40
40
80
80
80
80
80
80
40
40
ENDCHAR

STARTCHAR parenright
ENCODING 41
SWIDTH 333 0
DWIDTH 4 0
BBX 4 12 0 -2
BITMAP
20
20
10
10
10
10
10
10
20
20
40
80
ENDCHAR

STARTCHAR asterisk
ENCODING 42
SWIDTH 389 0
DWIDTH 5 0
BBX 5 5 0 3
BITMAP
20
A0
58
A0
20
ENDCHAR

STARTCHAR plus
ENCODING 43
SWIDTH 606 0
DWIDTH 7 0
BBX 7 7 0 0
BITMAP
10
10
10
FE
10
10
10
ENDCHAR

STARTCHAR comma
ENCODING 44
SWIDTH 250 0
DWIDTH 3 0
BBX 2 3 0 -1
BITMAP
40
40
80
ENDCHAR

STARTCHAR minus
ENCODING 45
SWIDTH 606 0
DWIDTH 7 0
BBX 7 1 0 3
BITMAP
FE
ENDCHAR

STARTCHAR period
ENCODING 46
SWIDTH 250 0
DWIDTH 3 0
BBX 1 2 1 0
BITMAP
80
80
ENDCHAR

STARTCHAR slash
ENCODING 47
SWIDTH 296 0
DWIDTH 4 0
BBX 3 11 0 -2
BITMAP
20
20
20
40
40
40
40
40
80
80
80
ENDCHAR

STARTCHAR zero
ENCODING 48
SWIDTH 500 0
DWIDTH 6 0
BBX 5 9 0 0
BITMAP
30
48
48
88
88
88
90
90
60
ENDCHAR

STARTCHAR one
ENCODING 49
SWIDTH 500 0
DWIDTH 6 0
BBX 3 9 1 0
BITMAP
20
60
A0
20
20
40
40
40
E0
ENDCHAR

STARTCHAR two
ENCODING 50
SWIDTH 500 0
DWIDTH 6 0
BBX 5 9 0 0
BITMAP
30
48
08
08
10
20
40
80
F0
ENDCHAR

STARTCHAR three
ENCODING 51
SWIDTH 500 0
DWIDTH 6 0
BBX 5 9 0 0
BITMAP
30
48
08
10
30
08
08
90
E0
ENDCHAR

STARTCHAR four
ENCODING 52
SWIDTH 500 0
DWIDTH 6 0
BBX 5 9 0 0
BITMAP
08
18
28
28
48
90
F8
10
78
ENDCHAR

STARTCHAR five
ENCODING 53
SWIDTH 500 0
DWIDTH 6 0
BBX 6 9 0 0
BITMAP
3C
20
40
70
48
08
08
90
E0
ENDCHAR

STARTCHAR six
ENCODING 54
SWIDTH 500 0
DWIDTH 6 0
BBX 5 9 0 0
BITMAP
18
20
40
50
A8
C8
88
90
60
ENDCHAR

STARTCHAR seven
ENCODING 55
SWIDTH 500 0
DWIDTH 6 0
BBX 6 9 0 0
BITMAP
7C
08
08
10
10
20
20
40
C0
ENDCHAR

STARTCHAR eight
ENCODING 56
SWIDTH 500 0
DWIDTH 6 0
BBX 6 9 0 0
BITMAP
18
24
44
28
30
48
88
90
60
ENDCHAR

STARTCHAR nine
ENCODING 57
SWIDTH 500 0
DWIDTH 6 0
BBX 6 9 0 0
BITMAP
18
24
44
4C
54
28
08
90
E0
ENDCHAR

STARTCHAR colon
ENCODING 58
SWIDTH 250 0
DWIDTH 3 0
BBX 2 6 1 0
BITMAP
40
40
00
00
80
80
ENDCHAR

STARTCHAR semicolon
ENCODING 59
SWIDTH 250 0
DWIDTH 3 0
BBX 3 7 0 -1
BITMAP
20
20
00
00
40
40
80
ENDCHAR

STARTCHAR less
ENCODING 60
SWIDTH 606 0
DWIDTH 7 0
BBX 7 7 0 0
BITMAP
06
18
60
80
60
18
06
ENDCHAR

STARTCHAR equal
ENCODING 61
SWIDTH 606 0
DWIDTH 7 0
BBX 6 4 0 2
BITMAP
FC
00
00
FC
ENDCHAR

STARTCHAR greater
ENCODING 62
SWIDTH 606 0
DWIDTH 7 0
BBX 7 7 0 0
BITMAP
C0
30
0C
02
0C
30
C0
ENDCHAR

STARTCHAR question
ENCODING 63
SWIDTH 500 0
DWIDTH 6 0
BBX 4 9 1 0
BITMAP
E0
90
10
20
40
40
00
80
80
ENDCHAR

STARTCHAR at
ENCODING 64
SWIDTH 747 0
DWIDTH 9 0
BBX 8 9 0 0
BITMAP
3C
42
9D
A5
A9
AA
94
41
3E
ENDCHAR

STARTCHAR A
ENCODING 65
SWIDTH 722 0
DWIDTH 9 0
BBX 9 9 0 0
BITMAP
0400
0400
0A00
1200
1200
3E00
2100
4100
E380
ENDCHAR

STARTCHAR B
ENCODING 66
SWIDTH 611 0
DWIDTH 7 0
BBX 6 9 0 0
BITMAP
78
24
24
24
38
44
44
44
F8
ENDCHAR

STARTCHAR C
ENCODING 67
SWIDTH 667 0
DWIDTH 8 0
BBX 7 9 0 0
BITMAP
1E
22
40
80
80
80
80
C2
7C
ENDCHAR

STARTCHAR D
ENCODING 68
SWIDTH 778 0
DWIDTH 9 0
BBX 8 9 0 0
BITMAP
7E
23
21
21
21
41
42
44
F8
ENDCHAR

STARTCHAR E
ENCODING 69
SWIDTH 611 0
DWIDTH 7 0
BBX 7 9 0 0
BITMAP
7E
22
20
20
38
40
40
44
FC
ENDCHAR

STARTCHAR F
ENCODING 70
SWIDTH 556 0
DWIDTH 7 0
BBX 7 9 0 0
BITMAP
7E
22
20
20
3C
40
40
40
E0
ENDCHAR

STARTCHAR G
ENCODING 71
SWIDTH 722 0
DWIDTH 9 0
BBX 8 9 0 0
BITMAP
1F
21
40
80
80
87
82
42
3C
ENDCHAR

STARTCHAR H
ENCODING 72
SWIDTH 778 0
DWIDTH 9 0
BBX 9 9 0 0
BITMAP
7380
2100
2100
2100
3E00
4200
4200
4200
E700
ENDCHAR

STARTCHAR I
ENCODING 73
SWIDTH 333 0
DWIDTH 4 0
BBX 4 9 0 0
BITMAP
70
20
20
20
20
40
40
40
E0
ENDCHAR

STARTCHAR J
ENCODING 74
SWIDTH 333 0
DWIDTH 4 0
BBX 4 11 0 -2
BITMAP
70
20
20
20
20
40
40
40
40
40
80
ENDCHAR

STARTCHAR K
ENCODING 75
SWIDTH 667 0
DWIDTH 8 0
BBX 8 9 0 0
BITMAP
73
22
24
28
30
48
44
42
E3
ENDCHAR

STARTCHAR L
ENCODING 76
SWIDTH 556 0
DWIDTH 7 0
BBX 6 9 0 0
BITMAP
70
20
20
20
20
40
40
44
FC
ENDCHAR

STARTCHAR M
ENCODING 77
SWIDTH 944 0
DWIDTH 12 0
BBX 12 9 0 0
BITMAP
3030
1060
1060
28A0
2920
2940
4A40
4440
E4E0
ENDCHAR

STARTCHAR N
ENCODING 78
SWIDTH 778 0
DWIDTH 9 0
BBX 9 9 0 0
BITMAP
6380
3100
3100
2900
2A00
4A00
4600
4600
E200
ENDCHAR

STARTCHAR O
ENCODING 79
SWIDTH 778 0
DWIDTH 9 0
BBX 8 9 0 0
BITMAP
1E
23
41
81
81
81
82
C4
78
ENDCHAR

STARTCHAR P
ENCODING 80
SWIDTH 611 0
DWIDTH 7 0
BBX 7 9 0 0
BITMAP
7C
22
22
22
2C
40
40
40
E0
ENDCHAR

STARTCHAR Q
ENCODING 81
SWIDTH 778 0
DWIDTH 9 0
BBX 8 11 0 -2
BITMAP
1C
22
41
81
81
81
82
44
38
51
0E
ENDCHAR

STARTCHAR R
ENCODING 82
SWIDTH 667 0
DWIDTH 8 0
BBX 8 9 0 0
BITMAP
7C
22
22
24
28
48
44
42
E3
ENDCHAR

STARTCHAR S
ENCODING 83
SWIDTH 556 0
DWIDTH 6 0
BBX 6 9 0 0
BITMAP
3C
44
40
40
30
08
08
88
F0
ENDCHAR

STARTCHAR T
ENCODING 84
SWIDTH 611 0
DWIDTH 7 0
BBX 7 9 0 0
BITMAP
FE
92
10
10
10
20
20
20
70
ENDCHAR

STARTCHAR U
ENCODING 85
SWIDTH 778 0
DWIDTH 9 0
BBX 9 9 0 0
BITMAP
C380
4100
4100
4100
8200
8200
8200
8600
7B00
ENDCHAR

STARTCHAR V
ENCODING 86
SWIDTH 722 0
DWIDTH 9 0
BBX 9 9 0 0
BITMAP
E380
4100
4200
4200
2400
2400
2800
1000
1000
ENDCHAR

STARTCHAR W
ENCODING 87
SWIDTH 944 0
DWIDTH 11 0
BBX 12 9 0 0
BITMAP
E470
4420
4440
4E40
4A40
3280
3280
2100
2100
ENDCHAR

STARTCHAR X
ENCODING 88
SWIDTH 722 0
DWIDTH 9 0
BBX 9 9 0 0
BITMAP
7380
2100
1200
1400
0800
1400
2400
4200
E700
ENDCHAR

STARTCHAR Y
ENCODING 89
SWIDTH 667 0
DWIDTH 7 0
BBX 7 9 0 0
BITMAP
C2
44
28
28
10
20
20
20
70
ENDCHAR

STARTCHAR Z
ENCODING 90
SWIDTH 667 0
DWIDTH 8 0
BBX 7 9 0 0
BITMAP
7E
44
04
08
10
20
20
42
FE
ENDCHAR

STARTCHAR bracketleft
ENCODING 91
SWIDTH 333 0
DWIDTH 4 0
BBX 4 11 0 -2
BITMAP
30
20
20
20
40
40
40
40
80
80
C0
ENDCHAR

STARTCHAR backslash
ENCODING 92
SWIDTH 606 0
DWIDTH 7 0
BBX 6 11 0 -2
BITMAP
80
80
40
40
20
20
10
10
08
08
04
ENDCHAR

STARTCHAR bracketright
ENCODING 93
SWIDTH 333 0
DWIDTH 4 0
BBX 4 11 0 -2
BITMAP
30
10
10
10
20
20
20
20
40
40
C0
ENDCHAR

STARTCHAR asciicircum
ENCODING 94
SWIDTH 606 0
DWIDTH 7 0
BBX 5 6 1 3
BITMAP
20
20
50
50
88
88
ENDCHAR

STARTCHAR underscore
ENCODING 95
SWIDTH 500 0
DWIDTH 6 0
BBX 6 1 0 -1
BITMAP
FC
ENDCHAR

STARTCHAR quoteleft
ENCODING 96
SWIDTH 278 0
DWIDTH 3 0
BBX 2 3 1 6
BITMAP
40
80
80
ENDCHAR

STARTCHAR a
ENCODING 97
SWIDTH 444 0
DWIDTH 6 0
BBX 6 6 0 0
BITMAP
38
48
90
90
B4
D8
ENDCHAR

STARTCHAR b
ENCODING 98
SWIDTH 463 0
DWIDTH 6 0
BBX 5 9 0 0
BITMAP
60
20
20
58
68
48
88
90
E0
ENDCHAR

STARTCHAR c
ENCODING 99
SWIDTH 407 0
DWIDTH 5 0
BBX 4 6 0 0
BITMAP
30
50
80
80
90
E0
ENDCHAR

STARTCHAR d
ENCODING 100
SWIDTH 500 0
DWIDTH 6 0
BBX 6 9 0 0
BITMAP
0C
04
04
38
48
88
90
B4
D8
ENDCHAR

STARTCHAR e
ENCODING 101
SWIDTH 389 0
DWIDTH 5 0
BBX 4 6 0 0
BITMAP
30
50
E0
80
90
E0
ENDCHAR

STARTCHAR f
ENCODING 102
SWIDTH 278 0
DWIDTH 4 0
BBX 6 12 -1 -3
BITMAP
0C
10
10
78
20
20
20
40
40
40
40
80
ENDCHAR

STARTCHAR g
ENCODING 103
SWIDTH 500 0
DWIDTH 5 0
BBX 6 9 -1 -3
BITMAP
38
4C
C8
70
20
70
98
88
F0
ENDCHAR

STARTCHAR h
ENCODING 104
SWIDTH 500 0
DWIDTH 6 0
BBX 6 9 0 0
BITMAP
60
20
20
58
68
48
90
94
98
ENDCHAR

STARTCHAR i
ENCODING 105
SWIDTH 278 0
DWIDTH 3 0
BBX 3 9 0 0
BITMAP
20
20
00
40
C0
40
80
A0
C0
ENDCHAR

STARTCHAR j
ENCODING 106
SWIDTH 278 0
DWIDTH 3 0
BBX 4 12 -1 -3
BITMAP
10
10
00
20
60
20
20
40
40
40
40
80
ENDCHAR

STARTCHAR k
ENCODING 107
SWIDTH 444 0
DWIDTH 5 0
BBX 5 9 0 0
BITMAP
60
20
20
48
50
60
60
90
98
ENDCHAR

STARTCHAR l
ENCODING 108
SWIDTH 278 0
DWIDTH 3 0
BBX 3 9 0 0
BITMAP
60
20
20
40
40
40
80
A0
C0
ENDCHAR

STARTCHAR m
ENCODING 109
SWIDTH 778 0
DWIDTH 9 0
BBX 9 6 0 0
BITMAP
5B00
ED00
4900
9200
9280
9300
ENDCHAR

STARTCHAR n
ENCODING 110
SWIDTH 556 0
DWIDTH 6 0
BBX 6 6 0 0
BITMAP
58
E8
48
90
94
98
ENDCHAR

STARTCHAR o
ENCODING 111
SWIDTH 444 0
DWIDTH 6 0
BBX 5 6 0 0
BITMAP
38
48
88
88
90
E0
ENDCHAR

STARTCHAR p
ENCODING 112
SWIDTH 500 0
DWIDTH 6 0
BBX 6 9 -1 -3
BITMAP
2C
74
24
44
48
70
40
80
80
ENDCHAR

STARTCHAR q
ENCODING 113
SWIDTH 463 0
DWIDTH 6 0
BBX 5 9 0 -3
BITMAP
38
48
88
90
B0
D0
20
20
20
ENDCHAR

STARTCHAR r
ENCODING 114
SWIDTH 389 0
DWIDTH 4 0
BBX 5 6 0 0
BITMAP
58
E0
40
80
80
80
ENDCHAR

STARTCHAR s
ENCODING 115
SWIDTH 389 0
DWIDTH 5 0
BBX 4 6 0 0
BITMAP
30
50
40
20
90
E0
ENDCHAR

STARTCHAR t
ENCODING 116
SWIDTH 333 0
DWIDTH 4 0
BBX 4 8 0 0
BITMAP
20
20
F0
40
40
80
A0
C0
ENDCHAR

STARTCHAR u
ENCODING 117
SWIDTH 556 0
DWIDTH 6 0
BBX 6 6 0 0
BITMAP
48
C8
48
90
B4
D8
ENDCHAR

STARTCHAR v
ENCODING 118
SWIDTH 500 0
DWIDTH 6 0
BBX 6 6 0 0
BITMAP
EC
A4
48
48
50
20
ENDCHAR

STARTCHAR w
ENCODING 119
SWIDTH 722 0
DWIDTH 9 0
BBX 8 6 0 0
BITMAP
EB
A9
49
52
5A
6C
ENDCHAR

STARTCHAR x
ENCODING 120
SWIDTH 500 0
DWIDTH 6 0
BBX 5 6 0 0
BITMAP
48
B0
20
20
68
90
ENDCHAR

STARTCHAR y
ENCODING 121
SWIDTH 500 0
DWIDTH 6 0
BBX 6 9 -1 -3
BITMAP
24
64
24
48
58
68
10
90
E0
ENDCHAR

STARTCHAR z
ENCODING 122
SWIDTH 444 0
DWIDTH 6 0
BBX 5 6 0 0
BITMAP
78
50
20
20
48
F8
ENDCHAR

STARTCHAR braceleft
ENCODING 123
SWIDTH 333 0
DWIDTH 4 0
BBX 4 11 0 -2
BITMAP
10
20
20
20
40
80
40
40
80
80
40
ENDCHAR

STARTCHAR bar
ENCODING 124
SWIDTH 606 0
DWIDTH 7 0
BBX 1 9 3 0
BITMAP
80
80
80
80
80
80
80
80
80
ENDCHAR

STARTCHAR braceright
ENCODING 125
SWIDTH 333 0
DWIDTH 4 0
BBX 4 11 0 -2
BITMAP
20
10
10
20
20
10
20
40
40
40
80
ENDCHAR

STARTCHAR asciitilde
ENCODING 126
SWIDTH 606 0
DWIDTH 7 0
BBX 6 2 1 2
BITMAP
64
98
ENDCHAR

STARTCHAR exclamdown
ENCODING 161
SWIDTH 333 0
DWIDTH 4 0
BBX 3 9 0 -3
BITMAP
20
20
00
40
40
40
80
80
80
ENDCHAR

STARTCHAR cent
ENCODING 162
SWIDTH 500 0
DWIDTH 6 0
BBX 5 8 0 -1
BITMAP
10
30
58
A0
A0
D0
E0
40
ENDCHAR

STARTCHAR sterling
ENCODING 163
SWIDTH 500 0
DWIDTH 6 0
BBX 5 9 0 0
BITMAP
18
28
40
40
F0
40
40
48
B8
ENDCHAR

STARTCHAR currency
ENCODING 164
SWIDTH 500 0
DWIDTH 7 0
BBX 6 7 0 1
BITMAP
B4
48
84
84
84
48
B4
ENDCHAR

STARTCHAR yen
ENCODING 165
SWIDTH 500 0
DWIDTH 8 0
BBX 7 9 0 0
BITMAP
C2
44
28
28
78
20
78
20
70
ENDCHAR

STARTCHAR brokenbar
ENCODING 166
SWIDTH 606 0
DWIDTH 7 0
BBX 1 9 3 0
BITMAP
80
80
80
80
00
80
80
80
80
ENDCHAR

STARTCHAR section
ENCODING 167
SWIDTH 500 0
DWIDTH 6 0
BBX 5 11 0 -2
BITMAP
78
88
80
40
B0
88
68
10
08
88
F0
ENDCHAR

STARTCHAR dieresis
ENCODING 168
SWIDTH 333 0
DWIDTH 4 0
BBX 4 2 0 7
BITMAP
90
90
ENDCHAR

STARTCHAR copyright
ENCODING 169
SWIDTH 747 0
DWIDTH 9 0
BBX 9 9 0 0
BITMAP
3E00
4100
9C80
A480
A080
B080
9E80
4100
3E00
ENDCHAR

STARTCHAR ordfeminine
ENCODING 170
SWIDTH 333 0
DWIDTH 4 0
BBX 3 6 0 3
BITMAP
E0
60
A0
E0
00
E0
ENDCHAR

STARTCHAR guillemotleft
ENCODING 171
SWIDTH 500 0
DWIDTH 6 0
BBX 5 5 0 1
BITMAP
28
50
A0
50
28
ENDCHAR

STARTCHAR logicalnot
ENCODING 172
SWIDTH 606 0
DWIDTH 7 0
BBX 6 3 0 1
BITMAP
FC
04
04
ENDCHAR

STARTCHAR hyphen
ENCODING 173
SWIDTH 333 0
DWIDTH 4 0
BBX 4 1 0 3
BITMAP
F0
ENDCHAR

STARTCHAR registered
ENCODING 174
SWIDTH 747 0
DWIDTH 9 0
BBX 9 9 0 0
BITMAP
3E00
4100
BC80
9280
9C80
9680
BA80
4100
3E00
ENDCHAR

STARTCHAR macron
ENCODING 175
SWIDTH 333 0
DWIDTH 4 0
BBX 4 1 0 7
BITMAP
F0
ENDCHAR

STARTCHAR degree
ENCODING 176
SWIDTH 400 0
DWIDTH 6 0
BBX 4 3 1 6
BITMAP
60
90
60
ENDCHAR

STARTCHAR plusminus
ENCODING 177
SWIDTH 606 0
DWIDTH 7 0
BBX 7 8 0 0
BITMAP
10
10
10
FE
10
10
10
FE
ENDCHAR

STARTCHAR twosuperior
ENCODING 178
SWIDTH 300 0
DWIDTH 4 0
BBX 3 6 0 3
BITMAP
60
A0
20
40
80
E0
ENDCHAR

STARTCHAR threesuperior
ENCODING 179
SWIDTH 300 0
DWIDTH 4 0
BBX 3 6 0 3
BITMAP
60
A0
40
20
A0
C0
ENDCHAR

STARTCHAR acute
ENCODING 180
SWIDTH 333 0
DWIDTH 4 0
BBX 3 2 0 7
BITMAP
60
80
ENDCHAR

STARTCHAR mu
ENCODING 181
SWIDTH 556 0
DWIDTH 7 0
BBX 7 9 0 -3
BITMAP
24
64
24
48
5A
6C
80
80
80
ENDCHAR

STARTCHAR paragraph
ENCODING 182
SWIDTH 500 0
DWIDTH 6 0
BBX 6 11 0 -2
BITMAP
7C
E8
E8
E8
E8
68
50
50
50
50
F8
ENDCHAR

STARTCHAR periodcentered
ENCODING 183
SWIDTH 250 0
DWIDTH 6 0
BBX 1 2 2 3
BITMAP
80
80
ENDCHAR

STARTCHAR cedilla
ENCODING 184
SWIDTH 333 0
DWIDTH 4 0
BBX 3 3 0 -2
BITMAP
40
20
E0
ENDCHAR

STARTCHAR onesuperior
ENCODING 185
SWIDTH 300 0
DWIDTH 4 0
BBX 3 6 0 3
BITMAP
60
20
20
40
40
E0
ENDCHAR

STARTCHAR ordmasculine
ENCODING 186
SWIDTH 333 0
DWIDTH 4 0
BBX 4 6 0 3
BITMAP
60
90
90
60
00
F0
ENDCHAR

STARTCHAR guillemotright
ENCODING 187
SWIDTH 500 0
DWIDTH 6 0
BBX 5 5 0 1
BITMAP
A0
50
28
50
A0
ENDCHAR

STARTCHAR onequarter
ENCODING 188
SWIDTH 750 0
DWIDTH 9 0
BBX 9 9 0 0
BITMAP
6200
2200
2400
4480
4980
EB00
1780
1100
2380
ENDCHAR

STARTCHAR onehalf
ENCODING 189
SWIDTH 750 0
DWIDTH 9 0
BBX 9 9 0 0
BITMAP
6200
2200
2400
4580
4A80
E880
1100
1200
2380
ENDCHAR

STARTCHAR threequarters
ENCODING 190
SWIDTH 750 0
DWIDTH 9 0
BBX 9 9 0 0
BITMAP
6200
A200
4400
2480
A980
CB00
1780
1100
2380
ENDCHAR

STARTCHAR questiondown
ENCODING 191
SWIDTH 500 0
DWIDTH 6 0
BBX 4 9 1 -3
BITMAP
10
10
00
20
20
40
80
90
70
ENDCHAR

STARTCHAR Agrave
ENCODING 192
SWIDTH 722 0
DWIDTH 9 0
BBX 9 12 0 0
BITMAP
1800
0400
0000
0400
0400
0A00
1200
1200
3E00
2100
4100
E380
ENDCHAR

STARTCHAR Aacute
ENCODING 193
SWIDTH 722 0
DWIDTH 9 0
BBX 9 12 0 0
BITMAP
0600
0800
0000
0400
0400
0A00
1200
1200
3E00
2100
4100
E380
ENDCHAR

STARTCHAR Acircumflex
ENCODING 194
SWIDTH 722 0
DWIDTH 9 0
BBX 9 12 0 0
BITMAP
0C00
1200
0000
0400
0400
0A00
1200
1200
3E00
2100
4100
E380
ENDCHAR

STARTCHAR Atilde
ENCODING 195
SWIDTH 722 0
DWIDTH 9 0
BBX 9 12 0 0
BITMAP
1A00
1600
0000
0400
0400
0A00
1200
1200
3E00
2100
4100
E380
ENDCHAR

STARTCHAR Adieresis
ENCODING 196
SWIDTH 722 0
DWIDTH 9 0
BBX 9 12 0 0
BITMAP
1200
1200
0000
0400
0400
0A00
1200
1200
3E00
2100
4100
E380
ENDCHAR

STARTCHAR Aring
ENCODING 197
SWIDTH 722 0
DWIDTH 9 0
BBX 9 13 0 0
BITMAP
0C00
1200
0C00
0000
0400
0400
0A00
1200
1200
3E00
4100
4100
E380
ENDCHAR

STARTCHAR AE
ENCODING 198
SWIDTH 941 0
DWIDTH 12 0
BBX 12 9 0 0
BITMAP
07F0
0310
0500
0900
09C0
1E00
2200
4220
E7E0
ENDCHAR

STARTCHAR Ccedilla
ENCODING 199
SWIDTH 667 0
DWIDTH 8 0
BBX 7 12 0 -3
BITMAP
1E
22
40
80
80
80
80
C2
7C
10
08
30
ENDCHAR

STARTCHAR Egrave
ENCODING 200
SWIDTH 611 0
DWIDTH 7 0
BBX 7 12 0 0
BITMAP
18
04
00
7E
22
20
20
38
40
40
44
FC
ENDCHAR

STARTCHAR Eacute
ENCODING 201
SWIDTH 611 0
DWIDTH 7 0
BBX 7 12 0 0
BITMAP
0C
10
00
7E
22
20
20
38
40
40
44
FC
ENDCHAR

STARTCHAR Ecircumflex
ENCODING 202
SWIDTH 611 0
DWIDTH 7 0
BBX 7 12 0 0
BITMAP
18
24
00
7E
22
20
20
38
40
40
44
FC
ENDCHAR

STARTCHAR Edieresis
ENCODING 203
SWIDTH 611 0
DWIDTH 7 0
BBX 7 12 0 0
BITMAP
24
24
00
7E
22
20
20
38
40
40
44
FC
ENDCHAR

STARTCHAR Igrave
ENCODING 204
SWIDTH 333 0
DWIDTH 4 0
BBX 4 12 0 0
BITMAP
60
10
00
70
20
20
20
20
40
40
40
E0
ENDCHAR

STARTCHAR Iacute
ENCODING 205
SWIDTH 333 0
DWIDTH 4 0
BBX 4 12 0 0
BITMAP
30
40
00
70
20
20
20
20
40
40
40
E0
ENDCHAR

STARTCHAR Icircumflex
ENCODING 206
SWIDTH 333 0
DWIDTH 4 0
BBX 5 12 0 0
BITMAP
30
48
00
70
20
20
20
20
40
40
40
E0
ENDCHAR

STARTCHAR Idieresis
ENCODING 207
SWIDTH 333 0
DWIDTH 4 0
BBX 5 12 0 0
BITMAP
48
48
00
70
20
20
20
20
40
40
40
E0
ENDCHAR

STARTCHAR Eth
ENCODING 208
SWIDTH 778 0
DWIDTH 9 0
BBX 8 9 0 0
BITMAP
7E
23
21
21
F9
41
42
44
F8
ENDCHAR

STARTCHAR Ntilde
ENCODING 209
SWIDTH 778 0
DWIDTH 9 0
BBX 9 12 0 0
BITMAP
1A00
1600
0000
6380
3100
3100
2900
2A00
4A00
4600
4600
E200
ENDCHAR

STARTCHAR Ograve
ENCODING 210
SWIDTH 778 0
DWIDTH 9 0
BBX 8 12 0 0
BITMAP
18
04
00
1E
23
41
81
81
81
82
C4
78
ENDCHAR

STARTCHAR Oacute
ENCODING 211
SWIDTH 778 0
DWIDTH 9 0
BBX 8 12 0 0
BITMAP
06
08
00
1E
23
41
81
81
81
82
C4
78
ENDCHAR

STARTCHAR Ocircumflex
ENCODING 212
SWIDTH 778 0
DWIDTH 9 0
BBX 8 12 0 0
BITMAP
0C
12
00
1E
23
41
81
81
81
82
C4
78
ENDCHAR

STARTCHAR Otilde
ENCODING 213
SWIDTH 778 0
DWIDTH 9 0
BBX 8 12 0 0
BITMAP
1A
16
00
1E
23
41
81
81
81
82
C4
78
ENDCHAR

STARTCHAR Odieresis
ENCODING 214
SWIDTH 778 0
DWIDTH 9 0
BBX 8 12 0 0
BITMAP
12
12
00
1E
23
41
81
81
81
82
C4
78
ENDCHAR

STARTCHAR multiply
ENCODING 215
SWIDTH 606 0
DWIDTH 7 0
BBX 7 7 0 0
BITMAP
82
44
28
10
28
44
82
ENDCHAR

STARTCHAR Oslash
ENCODING 216
SWIDTH 778 0
DWIDTH 9 0
BBX 8 9 0 0
BITMAP
1F
23
45
89
89
91
A2
C4
F8
ENDCHAR

STARTCHAR Ugrave
ENCODING 217
SWIDTH 778 0
DWIDTH 9 0
BBX 9 12 0 0
BITMAP
1800
0400
0000
C380
4100
4100
4100
8200
8200
8200
8600
7B00
ENDCHAR

STARTCHAR Uacute
ENCODING 218
SWIDTH 778 0
DWIDTH 9 0
BBX 9 12 0 0
BITMAP
0C00
1000
0000
C380
4100
4100
4100
8200
8200
8200
8600
7B00
ENDCHAR

STARTCHAR Ucircumflex
ENCODING 219
SWIDTH 778 0
DWIDTH 9 0
BBX 9 12 0 0
BITMAP
1800
2400
0000
C380
4100
4100
4100
8200
8200
8200
8600
7B00
ENDCHAR

STARTCHAR Udieresis
ENCODING 220
SWIDTH 778 0
DWIDTH 9 0
BBX 9 12 0 0
BITMAP
1200
1200
0000
C380
4100
4100
4100
8200
8200
8200
8600
7B00
ENDCHAR

STARTCHAR Yacute
ENCODING 221
SWIDTH 667 0
DWIDTH 7 0
BBX 7 12 0 0
BITMAP
0C
10
00
C2
64
28
28
10
20
20
20
70
ENDCHAR

STARTCHAR Thorn
ENCODING 222
SWIDTH 611 0
DWIDTH 7 0
BBX 7 9 0 0
BITMAP
70
20
3C
22
22
44
58
40
E0
ENDCHAR

STARTCHAR germandbls
ENCODING 223
SWIDTH 500 0
DWIDTH 6 0
BBX 7 12 -1 -3
BITMAP
0C
12
12
24
68
28
24
24
58
40
40
80
ENDCHAR

STARTCHAR agrave
ENCODING 224
SWIDTH 444 0
DWIDTH 6 0
BBX 6 9 0 0
BITMAP
30
08
00
38
48
90
90
B4
D8
ENDCHAR

STARTCHAR aacute
ENCODING 225
SWIDTH 444 0
DWIDTH 6 0
BBX 6 9 0 0
BITMAP
18
20
00
38
48
90
90
B4
D8
ENDCHAR

STARTCHAR acircumflex
ENCODING 226
SWIDTH 444 0
DWIDTH 6 0
BBX 6 9 0 0
BITMAP
30
48
00
38
48
90
90
B4
D8
ENDCHAR

STARTCHAR atilde
ENCODING 227
SWIDTH 444 0
DWIDTH 6 0
BBX 6 9 0 0
BITMAP
68
58
00
38
48
90
90
B4
D8
ENDCHAR

STARTCHAR adieresis
ENCODING 228
SWIDTH 444 0
DWIDTH 6 0
BBX 6 9 0 0
BITMAP
48
48
00
38
48
90
90
B4
D8
ENDCHAR

STARTCHAR aring
ENCODING 229
SWIDTH 444 0
DWIDTH 6 0
BBX 6 10 0 0
BITMAP
30
48
30
00
38
48
90
90
B4
D8
ENDCHAR

STARTCHAR ae
ENCODING 230
SWIDTH 638 0
DWIDTH 8 0
BBX 7 6 0 0
BITMAP
76
1A
7C
90
B2
DC
ENDCHAR

STARTCHAR ccedilla
ENCODING 231
SWIDTH 407 0
DWIDTH 5 0
BBX 4 9 0 -3
BITMAP
30
50
80
80
90
E0
40
20
C0
ENDCHAR

STARTCHAR egrave
ENCODING 232
SWIDTH 389 0
DWIDTH 5 0
BBX 4 9 0 0
BITMAP
60
10
00
30
50
E0
80
90
E0
ENDCHAR

STARTCHAR eacute
ENCODING 233
SWIDTH 389 0
DWIDTH 5 0
BBX 4 9 0 0
BITMAP
30
40
00
30
50
E0
80
90
E0
ENDCHAR

STARTCHAR ecircumflex
ENCODING 234
SWIDTH 389 0
DWIDTH 5 0
BBX 5 9 0 0
BITMAP
30
48
00
30
50
E0
80
90
E0
ENDCHAR

STARTCHAR edieresis
ENCODING 235
SWIDTH 389 0
DWIDTH 5 0
BBX 5 9 0 0
BITMAP
48
48
00
30
50
E0
80
90
E0
ENDCHAR

STARTCHAR igrave
ENCODING 236
SWIDTH 278 0
DWIDTH 3 0
BBX 3 9 0 0
BITMAP
C0
20
00
40
C0
40
80
A0
C0
ENDCHAR

STARTCHAR iacute
ENCODING 237
SWIDTH 278 0
DWIDTH 3 0
BBX 3 9 0 0
BITMAP
60
80
00
40
C0
40
80
A0
C0
ENDCHAR

STARTCHAR icircumflex
ENCODING 238
SWIDTH 278 0
DWIDTH 3 0
BBX 4 9 0 0
BITMAP
60
90
00
40
C0
40
80
A0
C0
ENDCHAR

STARTCHAR idieresis
ENCODING 239
SWIDTH 278 0
DWIDTH 3 0
BBX 4 9 0 0
BITMAP
90
90
00
40
C0
40
80
A0
C0
ENDCHAR

STARTCHAR eth
ENCODING 240
SWIDTH 444 0
DWIDTH 5 0
BBX 5 9 0 0
BITMAP
68
30
48
38
48
88
88
90
E0
ENDCHAR

STARTCHAR ntilde
ENCODING 241
SWIDTH 556 0
DWIDTH 6 0
BBX 6 9 0 0
BITMAP
34
2C
00
58
E8
48
90
94
98
ENDCHAR

STARTCHAR ograve
ENCODING 242
SWIDTH 444 0
DWIDTH 6 0
BBX 5 9 0 0
BITMAP
30
08
00
38
48
88
88
90
E0
ENDCHAR

STARTCHAR oacute
ENCODING 243
SWIDTH 444 0
DWIDTH 6 0
BBX 5 9 0 0
BITMAP
18
20
00
38
48
88
88
90
E0
ENDCHAR

STARTCHAR ocircumflex
ENCODING 244
SWIDTH 444 0
DWIDTH 6 0
BBX 5 9 0 0
BITMAP
30
48
00
38
48
88
88
90
E0
ENDCHAR

STARTCHAR otilde
ENCODING 245
SWIDTH 444 0
DWIDTH 6 0
BBX 5 9 0 0
BITMAP
68
58
00
38
48
88
88
90
E0
ENDCHAR

STARTCHAR odieresis
ENCODING 246
SWIDTH 444 0
DWIDTH 6 0
BBX 5 9 0 0
BITMAP
48
48
00
38
48
88
88
90
E0
ENDCHAR

STARTCHAR divide
ENCODING 247
SWIDTH 606 0
DWIDTH 7 0
BBX 7 7 0 0
BITMAP
10
10
00
FE
00
10
10
ENDCHAR

STARTCHAR oslash
ENCODING 248
SWIDTH 444 0
DWIDTH 6 0
BBX 5 6 0 0
BITMAP
38
58
A8
A8
D0
E0
ENDCHAR

STARTCHAR ugrave
ENCODING 249
SWIDTH 556 0
DWIDTH 6 0
BBX 6 9 0 0
BITMAP
30
08
00
4C
C8
48
90
B4
D8
ENDCHAR

STARTCHAR uacute
ENCODING 250
SWIDTH 556 0
DWIDTH 6 0
BBX 6 9 0 0
BITMAP
18
20
00
4C
C8
48
90
B4
D8
ENDCHAR

STARTCHAR ucircumflex
ENCODING 251
SWIDTH 556 0
DWIDTH 6 0
BBX 6 9 0 0
BITMAP
30
48
00
4C
C8
48
90
B4
D8
ENDCHAR

STARTCHAR udieresis
ENCODING 252
SWIDTH 556 0
DWIDTH 6 0
BBX 6 9 0 0
BITMAP
48
48
00
4C
C8
48
90
B4
D8
ENDCHAR

STARTCHAR yacute
ENCODING 253
SWIDTH 500 0
DWIDTH 6 0
BBX 6 12 -1 -3
BITMAP
0C
10
00
24
64
24
48
58
68
10
90
E0
ENDCHAR

STARTCHAR thorn
ENCODING 254
SWIDTH 500 0
DWIDTH 6 0
BBX 6 12 0 -3
BITMAP
60
20
20
2C
54
64
44
48
70
80
80
80
ENDCHAR

STARTCHAR ydieresis
ENCODING 255
SWIDTH 500 0
DWIDTH 6 0
BBX 6 12 -1 -3
BITMAP
24
24
00
24
64
24
48
58
68
10
90
E0
ENDCHAR
ENDFONT
